<svg width="116" height="37" viewBox="0 0 116 37" fill="none" xmlns="http://www.w3.org/2000/svg">
<path d="M18.5204 0.5C17.1168 0.5 15.7507 0.660642 14.4401 0.965194C7.77547 2.50937 2.52982 7.75502 0.985641 14.419C0.681089 15.7303 0.520447 17.0964 0.520447 18.5C0.520447 28.4411 8.57935 36.5 18.5204 36.5C19.9241 36.5 21.2902 36.3394 22.6014 36.0348C29.2654 34.4906 34.5111 29.2456 36.0559 22.5823C36.3605 21.2711 36.5211 19.9043 36.5211 18.5C36.5211 8.5589 28.4615 0.5 18.5204 0.5ZM18.5204 29.7724C17.1918 29.7724 15.9174 29.5428 14.734 29.1205C11.5546 27.9866 9.0345 25.4665 7.90063 22.2871C7.47828 21.1037 7.24869 19.8286 7.24869 18.5C7.24869 12.2744 12.2949 7.22758 18.5204 7.22758C19.8491 7.22758 21.1235 7.45716 22.3069 7.87952C25.4863 9.01339 28.0071 11.5335 29.1409 14.7129C29.5633 15.8963 29.7929 17.1714 29.7929 18.5C29.7929 24.7256 24.746 29.7724 18.5204 29.7724Z" fill="url(#paint0_linear_84_244)"/>
<path d="M18.5204 11.2349C14.5084 11.2349 11.2554 14.4879 11.2554 18.4999C11.2554 22.512 14.5084 25.765 18.5204 25.765C22.5325 25.765 25.7855 22.512 25.7855 18.4999C25.7855 14.4879 22.5331 11.2349 18.5204 11.2349ZM18.5204 22.8928C16.0947 22.8928 14.1275 20.9263 14.1275 18.4999C14.1275 16.0736 16.0947 14.107 18.5204 14.107C20.9461 14.107 22.9133 16.0736 22.9133 18.4999C22.9133 20.9263 20.9468 22.8928 18.5204 22.8928Z" fill="#FEFCFE"/>
<path d="M22.3069 7.87966C21.1235 7.4573 19.8491 7.22772 18.5204 7.22772C12.2949 7.22772 7.24868 12.2746 7.24868 18.5001C7.24868 19.8288 7.47826 21.1039 7.90062 22.2873C6.4622 21.7438 5.11347 20.893 3.95551 19.7351C2.43609 18.2157 1.44613 16.3676 0.985626 14.4191C2.5298 7.75516 7.77545 2.50951 14.4401 0.965332C16.3879 1.42584 18.236 2.4158 19.7554 3.93521C20.9127 5.09251 21.7634 6.44124 22.3069 7.87966Z" fill="url(#paint1_linear_84_244)"/>
<path d="M36.0559 22.5824C34.5111 29.2457 29.2654 34.4907 22.6014 36.0348C20.6536 35.5743 18.8056 34.5844 17.2862 33.065C16.1282 31.907 15.2775 30.5583 14.7339 29.1205C15.9173 29.5429 17.1918 29.7725 18.5204 29.7725C24.746 29.7725 29.7928 24.7256 29.7928 18.5C29.7928 17.1714 29.5633 15.8963 29.1409 14.7129C30.5787 15.2564 31.9274 16.1071 33.0854 17.2651C34.6048 18.7845 35.5954 20.6339 36.0559 22.5824Z" fill="url(#paint2_linear_84_244)"/>
<path d="M9.61683 31.1713C11.6973 31.1713 13.3839 29.4848 13.3839 27.4043C13.3839 25.3238 11.6973 23.6372 9.61683 23.6372C7.53634 23.6372 5.84976 25.3238 5.84976 27.4043C5.84976 29.4848 7.53634 31.1713 9.61683 31.1713Z" fill="url(#paint3_linear_84_244)"/>
<path d="M27.4575 13.3305C29.538 13.3305 31.2246 11.6439 31.2246 9.56346C31.2246 7.48296 29.538 5.79639 27.4575 5.79639C25.377 5.79639 23.6904 7.48296 23.6904 9.56346C23.6904 11.6439 25.377 13.3305 27.4575 13.3305Z" fill="url(#paint4_linear_84_244)"/>
<path d="M115.281 14.8095V16.9736H109.009V14.8095H115.281ZM110.558 11.9653H113.129V23.1102C113.129 23.4863 113.181 23.7748 113.285 23.9758C113.394 24.1716 113.536 24.3056 113.711 24.3777C113.886 24.4498 114.08 24.4859 114.293 24.4859C114.454 24.4859 114.601 24.473 114.734 24.4472C114.871 24.4215 114.975 24.3983 115.046 24.3777L115.48 26.5649C115.342 26.6164 115.146 26.6731 114.89 26.7349C114.639 26.7968 114.331 26.8328 113.967 26.8432C113.323 26.8638 112.743 26.7581 112.227 26.5263C111.711 26.2893 111.301 25.9234 110.998 25.4288C110.7 24.9342 110.553 24.3159 110.558 23.5739V11.9653Z" fill="#D4D4D8"/>
<path d="M104.618 26.6805V14.8092H107.189V26.6805H104.618ZM105.911 13.1243C105.504 13.1243 105.153 12.9775 104.86 12.6838C104.566 12.3849 104.42 12.0268 104.42 11.6095C104.42 11.187 104.566 10.8289 104.86 10.5352C105.153 10.2363 105.504 10.0869 105.911 10.0869C106.323 10.0869 106.673 10.2363 106.962 10.5352C107.256 10.8289 107.403 11.187 107.403 11.6095C107.403 12.0268 107.256 12.3849 106.962 12.6838C106.673 12.9775 106.323 13.1243 105.911 13.1243Z" fill="#D4D4D8"/>
<path d="M92.1344 26.6805V10.8521H94.7054V16.7723H94.812C94.9445 16.4837 95.1316 16.1772 95.373 15.8525C95.6145 15.5228 95.9412 15.242 96.3531 15.0101C96.7651 14.7731 97.2907 14.6546 97.9299 14.6546C98.7727 14.6546 99.5326 14.889 100.21 15.3579C100.892 15.8216 101.431 16.5095 101.829 17.4215C102.231 18.3283 102.433 19.4413 102.433 20.7603C102.433 22.0639 102.236 23.1717 101.843 24.0837C101.45 24.9956 100.915 25.6912 100.238 26.1704C99.561 26.6496 98.794 26.8892 97.937 26.8892C97.312 26.8892 96.7935 26.7758 96.3816 26.5491C95.9696 26.3224 95.6382 26.0493 95.3872 25.7299C95.141 25.4053 94.9493 25.0987 94.812 24.8102H94.6628V26.6805H92.1344ZM94.6557 20.7448C94.6557 21.5126 94.7551 22.185 94.954 22.762C95.1576 23.3391 95.4488 23.79 95.8276 24.1146C96.2111 24.434 96.6751 24.5937 97.2196 24.5937C97.7878 24.5937 98.2637 24.4289 98.6472 24.0991C99.0307 23.7642 99.3195 23.3082 99.5137 22.7311C99.7125 22.1489 99.812 21.4868 99.812 20.7448C99.812 20.008 99.7149 19.3537 99.5208 18.7817C99.3266 18.2098 99.0378 17.7615 98.6543 17.4369C98.2708 17.1123 97.7925 16.95 97.2196 16.95C96.6704 16.95 96.204 17.1072 95.8205 17.4215C95.437 17.7358 95.1458 18.1763 94.9469 18.7431C94.7528 19.3099 94.6557 19.9771 94.6557 20.7448Z" fill="#D4D4D8"/>
<path d="M84.0911 26.6805V14.8092H86.584V16.7877H86.6976C86.8965 16.1025 87.2374 15.5743 87.7203 15.2034C88.208 14.8272 88.7644 14.6392 89.3894 14.6392C89.5314 14.6392 89.69 14.6469 89.8652 14.6623C90.0451 14.6727 90.1943 14.6907 90.3127 14.7164V17.2901C90.2038 17.2489 90.0309 17.2128 89.7942 17.1819C89.5622 17.1458 89.3373 17.1278 89.1195 17.1278C88.6507 17.1278 88.2293 17.2386 87.8553 17.4601C87.486 17.6766 87.1948 17.978 86.9817 18.3644C86.7686 18.7508 86.6621 19.1965 86.6621 19.7015V26.6805H84.0911Z" fill="#D4D4D8"/>
<path d="M76.6816 26.9121C75.6163 26.9121 74.693 26.657 73.9117 26.1469C73.1305 25.6368 72.5244 24.9232 72.0936 24.0061C71.6674 23.0889 71.4543 22.0172 71.4543 20.7909C71.4543 19.5646 71.6674 18.4903 72.0936 17.568C72.5244 16.6457 73.1305 15.9295 73.9117 15.4194C74.693 14.9093 75.6163 14.6543 76.6816 14.6543C77.747 14.6543 78.6703 14.9093 79.4515 15.4194C80.2328 15.9295 80.8364 16.6457 81.2626 17.568C81.6935 18.4903 81.9089 19.5646 81.9089 20.7909C81.9089 22.0172 81.6935 23.0889 81.2626 24.0061C80.8364 24.9232 80.2328 25.6368 79.4515 26.1469C78.6703 26.657 77.747 26.9121 76.6816 26.9121ZM76.6958 24.6707C77.2735 24.6707 77.7564 24.4981 78.1447 24.1529C78.5329 23.8025 78.8218 23.3337 79.0112 22.7463C79.2053 22.1589 79.3024 21.5045 79.3024 20.7832C79.3024 20.0567 79.2053 19.3997 79.0112 18.8124C78.8218 18.2198 78.5329 17.7484 78.1447 17.398C77.7564 17.0476 77.2735 16.8724 76.6958 16.8724C76.104 16.8724 75.6115 17.0476 75.2186 17.398C74.8303 17.7484 74.5391 18.2198 74.345 18.8124C74.1556 19.3997 74.0609 20.0567 74.0609 20.7832C74.0609 21.5045 74.1556 22.1589 74.345 22.7463C74.5391 23.3337 74.8303 23.8025 75.2186 24.1529C75.6115 24.4981 76.104 24.6707 76.6958 24.6707Z" fill="#D4D4D8"/>
<path d="M67.7061 26.8505C67.2753 26.8505 66.9059 26.6856 66.5982 26.3559C66.2904 26.0261 66.1389 25.6242 66.1436 25.1502C66.1389 24.6865 66.2904 24.2897 66.5982 23.96C66.9059 23.6302 67.2753 23.4653 67.7061 23.4653C68.1228 23.4653 68.485 23.6302 68.7928 23.96C69.1053 24.2897 69.2639 24.6865 69.2686 25.1502C69.2639 25.4645 69.1881 25.7505 69.0414 26.0081C68.8993 26.2657 68.7099 26.4718 68.4732 26.6264C68.2412 26.7758 67.9855 26.8505 67.7061 26.8505Z" fill="#D4D4D8"/>
<path d="M56.5058 19.7243V26.6802H53.9348V14.8089H56.3922V16.8261H56.52C56.771 16.1614 57.1711 15.6333 57.7203 15.2417C58.2743 14.8501 58.9585 14.6543 59.7729 14.6543C60.5257 14.6543 61.1815 14.8295 61.7402 15.1798C62.3037 15.5302 62.7393 16.0377 63.047 16.7024C63.3595 17.3671 63.5134 18.1734 63.5087 19.1215V26.6802H60.9377V19.5543C60.9377 18.7608 60.7483 18.14 60.3695 17.6917C59.9954 17.2434 59.477 17.0193 58.8141 17.0193C58.3643 17.0193 57.9642 17.1275 57.6138 17.3439C57.2681 17.5551 56.9959 17.8617 56.797 18.2636C56.6029 18.6655 56.5058 19.1524 56.5058 19.7243Z" fill="#D4D4D8"/>
<path d="M48.72 26.6805V14.8092H51.291V26.6805H48.72ZM50.0126 13.1243C49.6054 13.1243 49.255 12.9775 48.9615 12.6838C48.6679 12.3849 48.5211 12.0268 48.5211 11.6095C48.5211 11.187 48.6679 10.8289 48.9615 10.5352C49.255 10.2363 49.6054 10.0869 50.0126 10.0869C50.4245 10.0869 50.7749 10.2363 51.0637 10.5352C51.3573 10.8289 51.5041 11.187 51.5041 11.6095C51.5041 12.0268 51.3573 12.3849 51.0637 12.6838C50.7749 12.9775 50.4245 13.1243 50.0126 13.1243Z" fill="#D4D4D8"/>
<defs>
<linearGradient id="paint0_linear_84_244" x1="31.076" y1="6.63588" x2="6.35579" y2="29.9953" gradientUnits="userSpaceOnUse">
<stop stop-color="#F38856"/>
<stop offset="0.23" stop-color="#F0625C"/>
<stop offset="1" stop-color="#5C3DAB"/>
</linearGradient>
<linearGradient id="paint1_linear_84_244" x1="17.3812" y1="3.55168" x2="3.3203" y2="17.537" gradientUnits="userSpaceOnUse">
<stop stop-color="#F67986"/>
<stop offset="1" stop-color="#8951BA"/>
</linearGradient>
<linearGradient id="paint2_linear_84_244" x1="33.4629" y1="19.7196" x2="19.402" y2="33.7055" gradientUnits="userSpaceOnUse">
<stop stop-color="#F67986"/>
<stop offset="1" stop-color="#8951BA"/>
</linearGradient>
<linearGradient id="paint3_linear_84_244" x1="12.3672" y1="24.8306" x2="6.86583" y2="29.9779" gradientUnits="userSpaceOnUse">
<stop stop-color="#A267B9"/>
<stop offset="1" stop-color="#704BB4"/>
</linearGradient>
<linearGradient id="paint4_linear_84_244" x1="29.7473" y1="7.42022" x2="25.9916" y2="10.9349" gradientUnits="userSpaceOnUse">
<stop stop-color="#F7A8A5"/>
<stop offset="0.97" stop-color="#D074C4"/>
<stop offset="1" stop-color="#CF76A9"/>
</linearGradient>
</defs>
</svg>
